<svg width="667" height="667" viewBox="0 0 667 667" fill="none" xmlns="http://www.w3.org/2000/svg">
<g clip-path="url(#clip0_6_2)">
<path d="M333.333 0C149.333 0 0 149.333 0 333.333C0 517.333 149.333 666.667 333.333 666.667C517.333 666.667 666.667 517.333 666.667 333.333C666.667 149.333 517.333 0 333.333 0ZM467.667 351L367.667 451C362.667 456 356.333 458.333 350 458.333C343.667 458.333 337.333 456 332.333 451C322.667 441.333 322.667 425.333 332.333 415.667L389.667 358.333H216.667C203 358.333 191.667 347 191.667 333.333C191.667 319.667 203 308.333 216.667 308.333H389.667L332.333 251C322.667 241.333 322.667 225.333 332.333 215.667C342 206 358 206 367.667 215.667L467.667 315.667C477.333 325.333 477.333 341.333 467.667 351Z" fill="#F5F2EE"/>
</g>
<defs>
<clipPath id="clip0_6_2">
<rect width="667" height="667" fill="white"/>
</clipPath>
</defs>
</svg>
