<svg width="1313" height="924" viewBox="0 0 1313 924" fill="none" xmlns="http://www.w3.org/2000/svg">
<path d="M1135.34 334.016C1128.46 284.078 1100.95 240.718 1051.3 201.546L1022.58 182.109L1003.44 211.115C978.918 248.493 966.655 300.524 970.543 350.462C972.338 367.806 978.021 399.503 995.667 426.715C978.021 436.583 943.027 449.74 896.369 448.843H5.08467L3.29014 459.309C-5.08435 509.247 -5.08435 665.639 95.1104 785.55C171.378 876.753 285.331 923.103 434.277 923.103C757.293 923.103 995.966 772.691 1108.12 498.781C1152.09 499.678 1246.9 499.08 1295.65 404.885C1296.85 402.792 1299.84 397.111 1308.21 379.169L1313 369.301L1285.78 350.761C1255.87 331.324 1187.98 323.849 1135.34 334.016ZM717.813 0H582.326V124.695H717.813V0ZM717.813 149.814H582.326V274.509H717.813V149.814ZM557.502 149.814H422.015V274.509H557.502V149.814ZM397.489 149.814H262.002V274.509H397.489V149.814ZM237.178 299.627H101.69V424.322H237.178V299.627ZM397.489 299.627H262.002V424.322H397.489V299.627ZM557.502 299.627H422.015V424.322H557.502V299.627ZM717.813 299.627H582.326V424.322H717.813V299.627ZM878.125 299.627H742.638V424.322H878.125V299.627Z" fill="#F5F2EE"/>
</svg>
