<svg width="1667" height="2500" viewBox="0 0 1667 2500" fill="none" xmlns="http://www.w3.org/2000/svg">
<g clip-path="url(#clip0_1_95)">
<path d="M416.834 2500C646.834 2500 833.5 2313.33 833.5 2083.33V1666.67H416.834C186.834 1666.67 0.166992 1853.33 0.166992 2083.33C0.166992 2313.33 186.834 2500 416.834 2500Z" fill="#F5F2EE"/>
<path d="M0.166992 1250C0.166992 1020 186.834 833.333 416.834 833.333H833.5V1666.67H416.834C186.834 1666.67 0.166992 1480 0.166992 1250Z" fill="#F5F2EE"/>
<path d="M0.166992 416.667C0.166992 186.667 186.834 0 416.834 0H833.5V833.333H416.834C186.834 833.333 0.166992 646.667 0.166992 416.667Z" fill="#F5F2EE"/>
<path d="M833.5 0H1250.17C1480.17 0 1666.83 186.667 1666.83 416.667C1666.83 646.667 1480.17 833.333 1250.17 833.333H833.5V0Z" fill="#F5F2EE"/>
<path d="M1666.83 1250C1666.83 1480 1480.17 1666.67 1250.17 1666.67C1020.17 1666.67 833.5 1480 833.5 1250C833.5 1020 1020.17 833.333 1250.17 833.333C1480.17 833.333 1666.83 1020 1666.83 1250Z" fill="#F5F2EE"/>
</g>
<defs>
<clipPath id="clip0_1_95">
<rect width="1667" height="2500" fill="white"/>
</clipPath>
</defs>
</svg>
