<svg width="2500" height="2500" viewBox="0 0 2500 2500" fill="none" xmlns="http://www.w3.org/2000/svg">
<g clip-path="url(#clip0_1_2)">
<path d="M0 0H2500V2500H0V0Z" fill="#F5F2EE"/>
<path d="M2295.39 1903.75C2277.09 1789.69 2202.71 1693.92 1982.41 1604.56C1905.89 1569.39 1820.58 1544.2 1795.15 1486.22C1786.12 1452.47 1784.93 1433.46 1790.64 1413.02C1807.03 1346.72 1886.17 1326.05 1948.91 1345.06C1989.31 1358.6 2027.57 1389.74 2050.62 1439.4C2158.51 1369.54 2158.27 1370.01 2233.6 1322.01C2206.04 1279.23 2191.3 1259.51 2173.24 1241.21C2108.37 1168.73 2019.96 1131.42 1878.56 1134.27C1854.09 1137.36 1829.38 1140.68 1804.9 1143.78C1734.32 1161.6 1667.06 1198.67 1627.61 1248.34C1509.27 1382.61 1543.01 1617.63 1687.03 1714.36C1828.9 1820.82 2037.31 1845.06 2063.93 1944.63C2089.83 2066.54 1974.34 2105.99 1859.55 2091.97C1774.95 2074.38 1727.9 2031.37 1677.04 1953.19C1583.42 2007.37 1583.42 2007.37 1487.17 2062.74C1509.98 2112.64 1533.98 2135.22 1572.25 2178.47C1753.33 2362.17 2206.51 2353.14 2287.79 2075.1C2291.11 2065.59 2312.98 2001.9 2295.39 1903.75ZM1359.08 1149H1125.24C1125.24 1351 1124.29 1551.57 1124.29 1753.56C1124.29 1882.13 1130.94 2000 1110.03 2036.12C1075.81 2107.17 987.17 2098.38 946.771 2084.6C905.659 2064.4 884.746 2035.64 860.506 1995.01C853.852 1983.37 848.862 1974.33 847.196 1973.62C783.748 2012.36 720.533 2051.33 657.082 2090.07C688.691 2154.94 735.266 2211.26 794.915 2247.86C884.031 2301.33 1003.8 2317.73 1129.04 2288.97C1210.55 2265.21 1280.89 2216.02 1317.73 2141.16C1370.96 2043.01 1359.55 1924.19 1359.08 1792.78C1360.27 1578.42 1359.08 1364.07 1359.08 1149Z" fill="#1D1D1D"/>
</g>
<defs>
<clipPath id="clip0_1_2">
<rect width="2500" height="2500" fill="white"/>
</clipPath>
</defs>
</svg>
