<svg width="2270" height="2500" viewBox="0 0 2270 2500" fill="none" xmlns="http://www.w3.org/2000/svg">
<path d="M1032.84 31.7375C1094.56 -3.59049 1174.95 -3.75006 1236.61 31.7375C1546.85 207.039 1857.19 382.066 2167.38 557.473C2225.72 590.337 2264.74 655.266 2264.15 722.491V1777.17C2264.58 1847.18 2221.7 1913.66 2160.15 1945.78C1850.93 2120.12 1541.87 2294.66 1232.7 2469C1169.71 2505.02 1087.7 2502.24 1026.68 2463.27C933.972 2409.53 841.108 2356.05 748.395 2302.37C729.45 2291.07 708.094 2282.08 694.716 2263.71C706.542 2247.77 727.686 2245.79 744.867 2238.83C783.564 2226.52 819.105 2206.77 854.654 2187.61C863.644 2181.45 874.619 2183.81 883.236 2189.32C962.509 2234.77 1041.08 2281.54 1120.62 2326.56C1137.59 2336.36 1154.77 2323.35 1169.27 2315.27C1472.71 2143.77 1776.52 1972.92 2079.91 1801.37C2091.15 1795.96 2097.37 1784.02 2096.45 1771.71C2096.67 1423.79 2096.51 1075.82 2096.56 727.899C2097.85 713.927 2089.76 701.082 2077.13 695.363C1768.98 521.826 1460.99 348.023 1152.9 174.441C1147.56 170.772 1141.24 168.803 1134.76 168.793C1128.28 168.784 1121.95 170.734 1116.6 174.388C808.511 348.023 500.576 521.986 192.482 695.514C179.894 701.241 171.445 713.874 172.943 727.899C172.996 1075.82 172.943 1423.79 172.943 1771.76C172.409 1777.77 173.729 1783.8 176.724 1789.04C179.72 1794.27 184.248 1798.46 189.699 1801.05C271.915 1847.67 354.238 1893.96 436.507 1940.43C482.855 1965.37 539.761 1980.2 590.824 1961.08C635.886 1944.92 667.473 1898.94 666.613 1851.09C667.039 1505.2 666.401 1159.26 666.933 813.431C665.807 798.076 680.372 785.39 695.301 786.835C734.805 786.569 774.362 786.303 813.865 786.941C830.355 786.569 841.702 803.103 839.663 818.573C839.503 1166.65 840.089 1514.73 839.397 1862.81C839.503 1955.58 801.392 2056.52 715.585 2101.91C609.876 2156.67 479.22 2145.05 374.787 2092.54C284.379 2047.42 198.103 1994.17 109.3 1945.82C47.5886 1913.88 4.92016 1847.14 5.35455 1777.18V722.491C4.70739 653.874 45.2836 587.766 105.443 555.381C414.61 380.904 723.723 206.294 1032.84 31.7375Z" fill="#F5F2EE"/>
<path d="M1302.55 762.323C1437.39 753.643 1581.75 757.181 1703.09 823.608C1797.03 874.512 1849.11 981.347 1850.77 1085.72C1848.15 1099.8 1833.43 1107.56 1819.99 1106.6C1780.87 1106.54 1741.74 1107.13 1702.62 1106.33C1686.02 1106.97 1676.37 1091.67 1674.29 1076.99C1663.05 1027.06 1635.82 977.597 1588.81 953.511C1516.66 917.385 1433 919.202 1354.32 919.956C1296.88 923.005 1235.12 927.979 1186.45 961.755C1149.1 987.34 1137.75 1038.99 1151.08 1080.58C1163.65 1110.45 1198.13 1120.09 1226.34 1128.97C1388.84 1171.47 1561.04 1167.24 1720.43 1223.17C1786.43 1245.98 1850.98 1290.3 1873.57 1359.4C1903.12 1452 1890.17 1562.69 1824.28 1637.04C1770.85 1698.22 1693.03 1731.52 1615.42 1749.6C1512.16 1772.62 1405.01 1773.21 1300.15 1762.99C1201.55 1751.75 1098.94 1725.84 1022.83 1658.66C957.739 1602.15 925.949 1514.09 929.105 1429.1C929.858 1414.74 944.149 1404.73 957.899 1405.91C997.296 1405.59 1036.69 1405.49 1076.09 1405.97C1091.83 1404.84 1103.49 1418.44 1104.3 1433.27C1111.57 1480.85 1129.45 1530.79 1170.94 1559C1251.01 1610.66 1351.48 1607.12 1443.16 1608.56C1519.12 1605.19 1604.39 1604.18 1666.37 1553.97C1699.08 1525.34 1708.77 1477.43 1699.93 1436.21C1690.35 1401.42 1653.95 1385.2 1622.69 1374.6C1462.28 1323.86 1288.16 1342.27 1129.29 1284.88C1064.8 1262.09 1002.43 1219 977.651 1152.74C943.076 1058.96 958.918 942.97 1031.71 871.135C1102.69 799.681 1205.14 772.172 1302.55 762.323Z" fill="#F5F2EE"/>
</svg>
