<svg width="1959" height="1959" viewBox="0 0 1959 1959" fill="none" xmlns="http://www.w3.org/2000/svg">
<path d="M1753.92 380.643C1635.56 227.376 1474.41 112.652 1290.84 50.9789C1107.28 -10.694 909.549 -16.5451 722.659 34.1656C535.768 84.8762 368.114 189.871 240.899 335.87C113.685 481.87 32.6237 662.316 7.96844 854.388C-16.6868 1046.46 16.1713 1241.53 102.387 1414.93C188.603 1588.32 324.303 1732.26 492.326 1828.53C660.349 1924.8 853.148 1969.07 1046.34 1955.76C1239.53 1942.45 1424.43 1872.15 1577.66 1753.75C2005.38 1423.2 2084.35 808.513 1753.92 380.643Z" fill="#F5F2EE"/>
<path d="M1309.25 623.812L896.435 1039.9L779.776 919.971C1186.08 513.67 1226.83 550.384 1309.25 623.812Z" fill="white"/>
<path d="M896.435 1051.29C892.778 1051.2 889.287 1049.74 886.644 1047.22L769.16 929.731C766.515 926.993 765.036 923.335 765.036 919.528C765.036 915.721 766.515 912.062 769.16 909.324C1169.74 508.744 1224.41 527.499 1319.04 613.165C1320.63 614.433 1321.9 616.052 1322.74 617.895C1323.59 619.738 1324 621.753 1323.94 623.781C1324.55 627.759 1323.02 631.828 1319.87 634.398L907.051 1047.25C904.157 1049.9 900.362 1051.32 896.435 1051.29ZM800.152 919.941L896.435 1016.22L1288.05 624.607C1274.53 607.662 1255.24 596.296 1233.86 592.684C1212.48 589.071 1190.53 593.466 1172.19 605.027C1101.21 636.845 986.996 733.923 800.152 919.941Z" fill="#1D1D1D"/>
<path d="M1014.75 1154.94L902.156 1039.9L1314.97 631.95C1425.94 740.471 1261.13 921.624 1014.75 1154.94Z" fill="white"/>
<path d="M1014.75 1169.63C1011.13 1169.34 1007.71 1167.91 1004.96 1165.56L889.918 1052.97C888.193 1048.78 888.193 1044.09 889.918 1039.9C888.695 1036.47 888.695 1032.72 889.918 1029.29L1302.74 616.469C1305.61 613.771 1309.4 612.27 1313.34 612.27C1317.28 612.27 1321.07 613.771 1323.94 616.469C1337.31 628.774 1347.87 643.813 1354.91 660.564C1361.94 677.316 1365.29 695.386 1364.72 713.547C1364.72 823.689 1239.07 962.376 1025.33 1164.73C1022.48 1167.56 1018.75 1169.29 1014.75 1169.63ZM923.358 1039.9L1015.54 1132.06C1178.7 977.857 1334.55 818.763 1335.35 711.068C1336.24 688.238 1328.69 665.879 1314.15 648.257L923.358 1039.9Z" fill="#1D1D1D"/>
<path d="M783.02 922.418L864.616 1004.02C865.137 1004.47 865.554 1005.04 865.84 1005.67C866.126 1006.31 866.274 1006.99 866.274 1007.69C866.274 1008.38 866.126 1009.07 865.84 1009.7C865.554 1010.33 865.137 1010.9 864.616 1011.36L692.458 1048.07C688.983 1048.82 685.358 1048.42 682.135 1046.92C678.912 1045.41 676.268 1042.9 674.605 1039.76C672.942 1036.62 672.351 1033.02 672.923 1029.51C673.495 1026 675.198 1022.77 677.773 1020.32L778.124 920.797C778.124 920.797 781.398 920.797 783.02 922.418Z" fill="white"/>
<path d="M688.389 1064.38C682.95 1064.31 677.618 1062.85 672.905 1060.13C668.191 1057.42 664.253 1053.54 661.465 1048.87C658.328 1042.95 657.19 1036.18 658.222 1029.56C659.253 1022.94 662.398 1016.84 667.187 1012.15L766.712 911.802C770.301 908.594 774.947 906.82 779.761 906.82C784.575 906.82 789.22 908.594 792.81 911.802L874.406 993.399C879.24 997.988 881.137 1004.93 879.302 1011.36C877.466 1017.78 872.081 1022.89 865.442 1024.42L693.284 1061.14L688.389 1064.38ZM779.776 940.378L687.594 1032.56L840.171 999.915L779.776 940.378Z" fill="#1D1D1D"/>
<path d="M1528.74 394.533C1469.69 337.565 1376.93 335.179 1315 388.934C1253.08 442.689 1242.49 534.964 1290.71 601.355C1338.93 667.746 1429.83 686.348 1500.2 644.188L1389.23 533.22L1528.74 394.533Z" fill="white"/>
<path d="M1418.6 681.698C1384.67 681.263 1351.63 670.855 1323.58 651.77C1295.53 632.685 1273.71 605.767 1260.85 574.371C1248 542.998 1244.63 508.547 1251.16 475.278C1257.68 442.01 1273.82 411.384 1297.57 387.191C1330.23 355.126 1374.17 337.162 1419.95 337.162C1465.72 337.162 1509.66 355.126 1542.33 387.191C1545.45 389.822 1547.22 393.707 1547.22 397.807C1547.21 399.824 1546.77 401.816 1545.93 403.648C1545.08 405.479 1543.85 407.108 1542.33 408.424L1410.16 533.251L1510.51 631.981C1512.13 633.534 1513.35 635.461 1514.06 637.594C1514.77 639.727 1514.95 642.002 1514.58 644.219C1514.33 646.358 1513.63 648.418 1512.5 650.252C1511.37 652.087 1509.86 653.652 1508.06 654.835C1481.1 671.687 1450.11 680.985 1418.32 681.759L1418.6 681.698ZM1418.6 365.132C1360.47 365.438 1308.46 400.408 1286.64 453.857C1264.83 507.307 1276.7 568.833 1317.45 609.891C1337.72 630.28 1363.68 644.071 1391.92 649.459C1420.16 654.847 1449.37 651.581 1475.72 640.089L1379.44 543.806C1377.91 542.582 1376.67 541.03 1375.82 539.264C1374.97 537.497 1374.53 535.563 1374.53 533.603C1374.53 531.643 1374.97 529.708 1375.82 527.942C1376.67 526.176 1377.91 524.623 1379.44 523.399L1506.71 395.298C1481.41 375.908 1450.47 365.336 1418.6 365.132Z" fill="#1D1D1D"/>
<path d="M1531.19 396.98L1391.68 535.668L1502.64 646.636C1513.81 640.224 1524.21 632.556 1533.64 623.781C1562.72 593.04 1578.72 552.202 1578.27 509.886C1577.81 467.57 1560.93 427.087 1531.19 396.98Z" fill="white"/>
<path d="M1500.17 658.873C1498.33 658.973 1496.5 658.658 1494.81 657.954C1493.11 657.25 1491.6 656.173 1490.37 654.804L1379.41 543.836C1377.88 542.612 1376.64 541.06 1375.79 539.293C1374.94 537.527 1374.5 535.593 1374.5 533.633C1374.5 531.673 1374.94 529.738 1375.79 527.972C1376.64 526.206 1377.88 524.653 1379.41 523.429L1518.09 387.19C1519.43 385.17 1521.25 383.514 1523.39 382.368C1525.52 381.222 1527.91 380.622 1530.33 380.622C1532.76 380.622 1535.14 381.222 1537.28 382.368C1539.41 383.514 1541.23 385.17 1542.57 387.19C1558.85 403.142 1571.79 422.183 1580.62 443.197C1589.45 464.211 1593.99 486.776 1593.99 509.57C1593.99 532.364 1589.45 554.928 1580.62 575.942C1571.79 596.957 1558.85 615.997 1542.57 631.95C1532.97 642.136 1521.98 650.922 1509.92 658.047C1506.89 659.577 1503.41 659.873 1500.17 658.873ZM1410.43 533.25L1502.61 625.433C1508.95 620.988 1514.96 616.08 1520.57 610.747C1547.67 583.722 1562.93 547.046 1563.01 508.774C1563.07 474.525 1550.59 441.438 1527.91 415.766L1410.43 533.25Z" fill="#1D1D1D"/>
<path d="M1326.39 640.945C1315.34 630.568 1300.75 624.792 1285.59 624.792C1270.43 624.792 1255.84 630.568 1244.79 640.945L875.232 1009.68L936.422 1071.69L1327.21 729.028C1333.17 723.316 1337.9 716.445 1341.1 708.838C1344.31 701.23 1345.92 693.047 1345.84 684.793C1345.77 676.539 1344 668.387 1340.65 660.841C1337.31 653.295 1332.45 646.544 1326.39 640.945Z" fill="white"/>
<path d="M933.149 1086.41C929.492 1086.32 926.001 1084.87 923.358 1082.34L861.342 1020.32C858.697 1017.58 857.219 1013.93 857.219 1010.12C857.219 1006.31 858.697 1002.65 861.342 999.916L1230.93 631.95C1241.57 621.317 1255.17 614.128 1269.95 611.315C1284.73 608.502 1300.01 610.195 1313.82 616.173C1327.63 622.151 1339.32 632.14 1347.38 644.844C1355.44 657.548 1359.5 672.38 1359.03 687.419C1358.61 697.626 1356.15 707.646 1351.81 716.892C1347.46 726.138 1341.32 734.425 1333.73 741.266L942.939 1083.93C940.097 1085.94 936.603 1086.85 933.149 1086.41ZM889.918 1009.68L930.701 1051.28L1314.15 717.585C1323.63 709.325 1329.29 697.515 1329.66 684.94C1330.03 672.366 1325.07 660.067 1315.8 651.5C1307.24 642.975 1295.65 638.189 1283.57 638.189C1271.49 638.189 1259.9 642.975 1251.34 651.5L889.918 1009.68Z" fill="#1D1D1D"/>
<path d="M588.864 1429.87C587.82 1431.29 587.257 1433 587.257 1434.76C587.257 1436.52 587.82 1438.24 588.864 1439.66L605.171 1510.64C605.824 1514.81 605.205 1519.09 603.393 1522.91C601.581 1526.73 598.661 1529.92 595.013 1532.05C591.379 1534.18 587.163 1535.1 582.973 1534.67C578.783 1534.25 574.836 1532.51 571.7 1529.7L459.937 1422L808.322 1070.87H929.08L1010.68 1152.46C883.392 1263.75 741.47 1357.08 588.864 1429.87Z" fill="white"/>
<path d="M581.52 1549.8C572.281 1549.62 563.163 1545.82 557.044 1539.18L450.176 1432.32C448.645 1431.09 447.41 1429.54 446.561 1427.77C445.711 1426.01 445.271 1424.07 445.271 1422.11C445.271 1420.15 445.711 1418.22 446.561 1416.45C447.41 1414.68 448.645 1413.13 450.176 1411.91L800.978 1060.28C802.943 1058.19 805.509 1056.77 808.321 1056.21H929.875C933.042 1055.09 936.498 1055.09 939.665 1056.21L1021.26 1137.81C1022.81 1139.24 1023.99 1141.02 1024.7 1143.01C1025.41 1145 1025.63 1147.13 1025.33 1149.22C1025.39 1151.25 1024.98 1153.26 1024.13 1155.1C1023.28 1156.94 1022.02 1158.56 1020.44 1159.84L1013.92 1165.56C886.122 1272.1 745.521 1362.27 595.38 1433.97L610.892 1500.05C612.091 1505.15 612.137 1510.45 611.026 1515.57C609.915 1520.69 607.676 1525.49 604.472 1529.64C601.268 1533.78 597.179 1537.15 592.504 1539.51C587.83 1541.87 582.687 1543.16 577.451 1543.28L581.52 1549.8ZM481.995 1421.7L578.247 1518.78C579.144 1519.58 580.303 1520.02 581.505 1520.02C582.707 1520.02 583.867 1519.58 584.763 1518.78C585.363 1517.94 585.686 1516.94 585.686 1515.92C585.686 1514.89 585.363 1513.89 584.763 1513.06L568.456 1442.07C567.171 1436.98 567.688 1431.6 569.918 1426.84C572.149 1422.09 575.956 1418.25 580.694 1415.98C726.799 1345.23 863.775 1257.02 988.617 1153.26L921.706 1086.35H812.39L481.995 1421.7Z" fill="#1D1D1D"/>
<path d="M375.922 1505.74L457.519 1424.15L583.172 1549.8L383.295 1535.94C379.864 1535.67 376.604 1534.33 373.983 1532.09C371.362 1529.86 369.512 1526.86 368.698 1523.52C367.884 1520.17 368.147 1516.66 369.45 1513.47C370.752 1510.28 373.028 1507.59 375.953 1505.77L375.922 1505.74Z" fill="white"/>
<path d="M585.59 1562.04L386.509 1548.18C374.699 1547.08 364.541 1539 360.38 1528.2C356.22 1517.4 358.759 1504.58 366.928 1495.95L448.525 1414.36C451.263 1411.71 454.921 1410.23 458.728 1410.23C462.535 1410.23 466.193 1411.71 468.931 1414.36L593.759 1539.18C595.487 1541.55 596.418 1544.41 596.418 1547.34C596.418 1550.27 595.487 1553.12 593.759 1555.49C591.872 1558.54 588.985 1560.88 585.59 1562.04ZM386.509 1516.36L549.672 1526.98L459.937 1442.93L386.509 1516.36Z" fill="#1D1D1D"/>
<path d="M940.492 1080.72L775.677 1106.02L871.133 1011.39L940.492 1080.72Z" fill="white"/>
<path d="M775.677 1121.47C772.937 1121.54 770.238 1120.8 767.915 1119.35C765.591 1117.9 763.747 1115.79 762.613 1113.3C760.875 1110.94 759.938 1108.08 759.938 1105.15C759.938 1102.21 760.875 1099.36 762.613 1096.99L857.243 1001.54C860.114 998.84 863.905 997.338 867.844 997.338C871.783 997.338 875.574 998.84 878.445 1001.54L947.835 1070.87C949.221 1073.06 949.956 1075.61 949.956 1078.21C949.956 1080.81 949.221 1083.35 947.835 1085.55C947.154 1088.23 945.716 1090.66 943.692 1092.54C941.668 1094.42 939.144 1095.68 936.423 1096.17L773.26 1121.47H775.677ZM871.133 1032.53L818.112 1085.55L909.499 1071.69L871.133 1032.53Z" fill="#1D1D1D"/>
<path d="M940.492 1080.66L825.455 1095.34C822.376 1096.04 819.155 1095.73 816.267 1094.45C813.38 1093.18 810.981 1091 809.425 1088.26C807.87 1085.51 807.241 1082.33 807.632 1079.2C808.022 1076.07 809.412 1073.15 811.595 1070.87L871.164 1011.3L940.492 1080.66Z" fill="white"/>
<path d="M822.18 1110.88C816.848 1110.83 811.625 1109.37 807.041 1106.65C802.457 1103.92 798.676 1100.03 796.083 1095.37C792.967 1089.79 791.76 1083.34 792.643 1077C793.527 1070.67 796.453 1064.8 800.978 1060.28L860.547 1000.71C863.417 998.014 867.208 996.512 871.148 996.512C875.087 996.512 878.878 998.014 881.749 1000.71L951.108 1070.07C953.17 1072.02 954.622 1074.54 955.286 1077.3C955.95 1080.06 955.799 1082.96 954.85 1085.63C953.901 1088.31 952.195 1090.66 949.94 1092.39C947.685 1094.12 944.976 1095.15 942.143 1095.37L827.932 1110.06L822.18 1110.88ZM822.18 1080.69L908.673 1070.07L870.337 1031.73L821.385 1080.69H822.18ZM1531.98 490.815C1530.45 488.241 1528.02 486.32 1525.16 485.418C1522.3 484.516 1519.21 484.694 1516.47 485.92C1515.12 486.605 1513.92 487.553 1512.95 488.709C1511.97 489.865 1511.23 491.206 1510.78 492.651C1509.87 495.568 1510.16 498.726 1511.58 501.432C1517.3 513.456 1515.71 527.682 1507.51 538.146C1506.49 539.154 1505.69 540.362 1505.17 541.695C1504.64 543.027 1504.39 544.455 1504.45 545.886C1504.48 548.756 1505.57 551.513 1507.51 553.627C1509.6 554.454 1511.93 554.454 1514.02 553.627C1515.92 554.105 1517.92 554.052 1519.79 553.475C1521.66 552.897 1523.34 551.818 1524.64 550.353C1531.36 542.128 1535.61 532.17 1536.91 521.629C1538.21 511.089 1536.5 500.426 1531.98 490.815Z" fill="#1D1D1D"/>
</svg>
