<svg width="1006" height="1215" viewBox="0 0 1006 1215" fill="none" xmlns="http://www.w3.org/2000/svg">
<path d="M999.371 925.362L581.599 38.3082C571.023 16.0678 549.104 1.41463 524.507 0.141983C499.853 -1.50958 476.326 10.6847 463.467 31.7802L10.346 765.561C-3.72092 788.181 -3.42496 816.897 11.1052 839.222L232.64 1182.23C249.853 1208.68 282.413 1220.65 312.66 1211.65L955.55 1021.52C975.135 1015.8 991.276 1001.86 999.796 983.324C1008.2 964.876 1008.06 943.664 999.401 925.331L999.371 925.362ZM905.838 963.406L360.307 1124.69C343.665 1129.64 327.692 1115.22 331.154 1098.43L526.055 165.347C529.7 147.888 553.812 145.125 561.434 161.278L922.236 927.335C925.465 934.244 925.504 942.22 922.343 949.159C919.182 956.099 913.139 961.306 905.807 963.406H905.838Z" fill="#F5F2EE"/>
</svg>
