<svg width="2500" height="2383" viewBox="0 0 2500 2383" fill="none" xmlns="http://www.w3.org/2000/svg">
<g clip-path="url(#clip0_1_23)">
<path d="M1732.24 1657.64C1824.49 1648.09 1894.48 1568.56 1891.3 1473.11C1888.12 1377.67 1808.58 1301.31 1713.14 1301.31H1706.79C1608.15 1304.5 1531.81 1387.21 1534.99 1485.84C1538.17 1533.56 1557.26 1574.92 1585.89 1603.55C1477.72 1816.71 1312.29 1972.6 1064.15 2103.04C895.537 2192.12 720.566 2223.94 545.596 2201.68C402.432 2182.58 291.084 2118.96 221.084 2013.96C119.287 1858.07 109.746 1689.45 195.644 1520.84C256.094 1399.94 351.523 1310.86 411.973 1266.31C399.248 1224.96 380.156 1154.97 370.615 1104.07C-90.6837 1438.12 -42.9591 1889.89 97.0214 2103.04C202.002 2262.12 415.156 2360.75 650.576 2360.75C714.199 2360.75 777.822 2354.38 841.455 2338.48C1248.67 2258.94 1557.27 2017.14 1732.24 1657.64ZM2292.16 1263.14C2050.37 979.986 1694.06 824.098 1286.85 824.098H1235.95C1207.31 766.832 1146.87 728.648 1080.06 728.648H1073.69C975.078 731.832 898.73 814.547 901.904 913.18C905.088 1008.62 984.619 1084.98 1080.06 1084.98H1086.42C1156.41 1081.79 1216.86 1037.25 1242.3 976.803H1299.57C1541.36 976.803 1770.41 1046.79 1977.21 1183.6C2136.27 1288.59 2250.8 1425.4 2314.42 1590.83C2368.51 1724.45 2365.32 1854.89 2308.06 1966.25C2218.98 2134.86 2069.46 2227.13 1872.22 2227.13C1744.96 2227.13 1624.07 2188.94 1560.44 2160.31C1525.45 2192.12 1461.82 2243.02 1417.28 2274.85C1554.08 2338.47 1694.06 2373.47 1827.68 2373.47C2133.09 2373.47 2358.96 2204.85 2444.86 2036.24C2537.12 1851.71 2530.75 1533.56 2292.16 1263.14ZM676.025 1711.71C679.209 1807.16 758.74 1883.51 854.18 1883.51H860.547C959.17 1880.34 1035.52 1797.61 1032.33 1698.99C1029.16 1603.54 949.619 1527.19 854.18 1527.19H847.822C841.455 1527.19 831.904 1527.19 825.557 1530.37C695.117 1314.03 641.035 1078.61 660.127 824.088C672.842 633.199 736.474 467.76 847.822 330.953C940.078 213.238 1118.23 155.973 1239.13 152.799C1576.35 146.432 1719.5 566.383 1729.05 735.006C1770.41 744.547 1840.4 766.822 1888.12 782.73C1849.94 267.34 1531.81 0.09375 1226.41 0.09375C940.078 0.09375 676.025 206.891 571.035 512.311C424.697 919.537 520.137 1310.86 698.291 1619.46C682.392 1641.72 672.842 1676.71 676.025 1711.71Z" fill="#F5F2EE"/>
</g>
<defs>
<clipPath id="clip0_1_23">
<rect width="2500" height="2383" fill="white"/>
</clipPath>
</defs>
</svg>
