<svg width="3820" height="3820" viewBox="0 0 3820 3820" fill="none" xmlns="http://www.w3.org/2000/svg">
<g clip-path="url(#clip0_3_2)">
<path d="M3446.95 0H373.047C167.019 0 0 167.019 0 373.047V3446.95C0 3652.98 167.019 3820 373.047 3820H3446.95C3652.98 3820 3820 3652.98 3820 3446.95V373.047C3820 167.019 3652.98 0 3446.95 0Z" fill="#F5F2EE"/>
<path d="M3446.95 0H373.047C167.019 0 0 167.019 0 373.047V3446.95C0 3652.98 167.019 3820 373.047 3820H3446.95C3652.98 3820 3820 3652.98 3820 3446.95V373.047C3820 167.019 3652.98 0 3446.95 0Z" fill="#F5F2EE"/>
<path fill-rule="evenodd" clip-rule="evenodd" d="M2364.66 3039.77V3413.27C2425.38 3444.39 2497.19 3467.73 2580.1 3483.3C2663 3498.86 2750.38 3506.64 2842.24 3506.64C2931.76 3506.64 3016.8 3498.08 3097.37 3480.96C3177.94 3463.84 3248.59 3435.63 3309.31 3396.34C3370.02 3357.05 3418.09 3305.69 3453.51 3242.27C3488.93 3178.85 3506.64 3100.46 3506.64 3007.09C3506.64 2939.39 3496.52 2880.06 3476.28 2829.09C3456.04 2778.12 3426.85 2732.8 3388.71 2693.11C3350.57 2653.43 3304.83 2617.83 3251.51 2586.31C3198.18 2554.8 3138.05 2525.03 3071.1 2497.03C3022.06 2476.79 2978.08 2457.15 2939.15 2438.09C2900.23 2419.01 2867.15 2399.56 2839.9 2379.73C2812.65 2359.88 2791.64 2338.87 2776.85 2316.7C2762.06 2294.51 2754.66 2269.42 2754.66 2241.41C2754.66 2215.73 2761.28 2192.58 2774.51 2171.96C2787.75 2151.34 2806.43 2133.64 2830.56 2118.85C2854.7 2104.07 2884.27 2092.59 2919.3 2084.42C2954.34 2076.25 2993.25 2072.17 3036.07 2072.17C3067.21 2072.17 3100.09 2074.51 3134.74 2079.17C3169.38 2083.84 3204.21 2091.04 3239.25 2100.76C3274.28 2110.49 3308.33 2122.75 3341.42 2137.53C3374.5 2152.32 3405.05 2169.43 3433.08 2188.89V1839.9C3376.25 1818.11 3314.17 1801.97 3246.84 1791.46C3179.5 1780.96 3102.24 1775.7 3015.05 1775.7C2926.31 1775.7 2842.24 1785.24 2762.84 1804.3C2683.44 1823.36 2613.57 1853.13 2553.24 1893.59C2492.91 1934.05 2445.23 1985.6 2410.2 2048.24C2375.17 2110.88 2357.66 2185.77 2357.66 2272.92C2357.66 2384.19 2389.77 2479.13 2453.99 2557.72C2518.21 2636.31 2615.71 2702.84 2746.49 2757.31C2797.87 2778.32 2845.74 2798.93 2890.11 2819.17C2934.48 2839.4 2972.83 2860.41 3005.12 2882.2C3037.43 2903.98 3062.92 2927.72 3081.61 2953.4C3100.3 2979.07 3109.64 3008.25 3109.64 3040.94C3109.64 3065.06 3103.79 3087.43 3092.12 3108.05C3080.44 3128.67 3062.73 3146.56 3038.99 3161.74C3015.25 3176.91 2985.67 3188.77 2950.25 3197.33C2914.82 3205.9 2873.38 3210.17 2825.89 3210.17C2744.93 3210.17 2664.76 3195.97 2585.35 3167.57C2505.95 3139.17 2432.38 3096.57 2364.66 3039.77ZM1736.76 2119.52H2215.9V1813.01H880.391V2119.52H1357.19V3484.26H1736.76V2119.52Z" fill="#1D1D1D"/>
</g>
<defs>
<clipPath id="clip0_3_2">
<rect width="3820" height="3820" fill="white"/>
</clipPath>
</defs>
</svg>
