<svg width="1761" height="1825" viewBox="0 0 1761 1825" fill="none" xmlns="http://www.w3.org/2000/svg">
<path d="M1760.97 88.0357V1672.68C1760.97 1721.3 1721.55 1760.71 1672.92 1760.71H88.0487C39.4207 1760.71 0 1721.3 0 1672.68V88.0357C0 39.4149 39.4207 0 88.0487 0H1672.92C1721.55 0 1760.97 39.4149 1760.97 88.0357Z" fill="#F5F2EE"/>
<path opacity="0.2" d="M378.948 377.304C329.735 376.26 306.661 410.28 316.792 468.924C320.062 487.825 336.616 514.821 372.313 559.594C412.012 609.328 427.981 636.481 445.281 683.517C472.551 757.675 485.156 782.545 507.313 805.722C524.524 823.726 524.526 823.778 512.963 860.499C495.034 917.443 491.324 1031.58 505.716 1085.25C527.255 1165.58 553.766 1202.05 590.721 1202.05C617.115 1202.05 638.747 1179.99 646.488 1145.19C649.173 1133.12 654.192 1115.88 657.665 1106.87C663.663 1091.32 665.271 1092.52 688.744 1130.82C702.346 1153.01 728.282 1186.07 746.354 1204.27C788.102 1246.3 845.402 1293.67 849.535 1289.62C851.279 1287.91 834.566 1263.1 812.438 1234.35C790.31 1205.61 748.596 1138.84 719.698 1085.99C685.992 1024.34 663.114 989.866 655.944 989.822C632.645 989.664 610.921 1026.3 598.334 1087.09C583.833 1157.13 558.287 1145.39 537.529 1059.09C525.569 1009.36 531.803 942.383 554.112 879.657C564.262 851.124 572.538 824.715 572.538 821.073C572.538 817.432 556.355 786.898 536.547 753.153C516.735 719.386 493.459 671.595 484.85 646.882C463.932 586.892 454.001 569.411 412.009 518.412C368.744 465.93 364.651 441.677 399.11 441.91C425.872 442.086 469.064 460.111 512.485 489.317C539.974 507.808 549.291 510.319 593.433 510.319C648.867 510.319 660.784 514.86 737.644 565.464C815.913 617.002 874.258 664.901 914.653 710.88C950.527 751.714 970.125 787.208 1075.69 1003.67C1116.21 1086.77 1152.15 1126.88 1201.72 1144.05C1278.28 1170.58 1304.34 1182.61 1338.06 1206.81L1373.7 1232.36L1349.74 1237.03C1336.51 1239.56 1307.69 1243.7 1285.74 1246.24C1239.99 1251.52 1210.07 1270.49 1210.07 1294.26C1210.07 1321.04 1301.35 1397.72 1392.85 1447.78C1436.81 1471.84 1479.11 1495.52 1486.81 1500.47C1507.31 1513.63 1512.87 1512.04 1507.57 1494.7C1496.49 1458.39 1458.97 1423.02 1354.76 1350.38C1293.64 1307.78 1293.01 1309.36 1374.67 1301.26C1432.84 1295.54 1462.21 1285.6 1462.21 1271.58C1462.21 1265.17 1432.66 1231.08 1396.49 1195.93C1339.89 1140.85 1320.76 1127.14 1258.44 1096.77C1173.54 1055.52 1142.59 1022.75 1123.04 953.205C1093.85 849.512 1015.36 727.646 911.027 624.329C803.355 517.68 700.527 458.672 606.315 449.427C568.014 445.667 548.203 439.856 528.393 426.457C494.858 403.749 416.966 378.138 378.924 377.332L378.948 377.304ZM565.291 566.077C557.576 565.581 550.86 566.611 546.252 569.761C529.056 581.52 531.096 595.86 551.288 604.764C560.78 608.95 574.244 623.722 581.26 637.556C604.851 684.076 640.998 652.931 624.867 599.974C619.782 583.282 588.434 567.56 565.291 566.077Z" fill="black"/>
<path d="M378.948 314.414C329.735 313.37 306.661 347.39 316.792 406.034C320.062 424.936 336.616 451.951 372.313 496.672C412.011 546.388 427.985 573.554 445.281 620.59C472.551 694.728 485.154 719.629 507.286 742.77C524.518 760.818 524.518 760.881 512.946 797.603C495.034 854.512 491.324 968.644 505.713 1022.35C527.223 1102.65 553.763 1139.12 590.744 1139.12C617.096 1139.12 638.73 1117.05 646.466 1082.27C649.17 1070.2 654.201 1052.97 657.66 1043.98C663.635 1028.38 665.27 1029.58 688.728 1067.87C702.314 1090.07 728.288 1123.15 746.338 1141.32C788.098 1183.39 845.393 1230.74 849.544 1226.71C851.305 1225.02 834.575 1200.18 812.438 1171.44C790.3 1142.7 748.602 1075.92 719.672 1023.1C685.962 961.414 663.132 926.953 655.962 926.89C632.63 926.764 610.932 963.362 598.353 1024.17C583.826 1094.22 558.291 1082.46 537.537 996.188C525.588 946.447 531.813 879.478 554.14 816.721C564.266 788.234 572.568 761.824 572.568 758.177C572.568 754.529 556.341 723.968 536.531 690.264C516.72 656.495 493.443 608.704 484.833 583.991C463.916 524.001 453.985 506.52 411.992 455.529C368.729 403.034 364.634 378.786 399.093 379.013C425.854 379.195 469.047 397.218 512.443 426.42C539.99 444.914 549.297 447.423 593.448 447.423C648.855 447.423 660.743 451.964 737.659 502.571C815.897 554.123 874.261 602.039 914.636 648.006C950.485 688.817 970.108 724.346 1075.7 940.787C1116.21 1023.86 1152.12 1063.97 1201.68 1081.14C1278.28 1107.68 1304.31 1119.69 1338.03 1143.9L1373.68 1169.49L1349.72 1174.15C1336.52 1176.66 1307.65 1180.81 1285.7 1183.33C1239.98 1188.61 1210.04 1207.6 1210.04 1231.37C1210.04 1258.16 1301.3 1334.81 1392.81 1384.87C1436.83 1408.95 1479.1 1432.65 1486.82 1437.56C1507.33 1450.77 1512.87 1449.13 1507.58 1431.84C1496.45 1395.49 1458.97 1360.15 1354.75 1287.52C1293.63 1244.89 1293 1246.46 1374.63 1238.35C1432.86 1232.56 1462.23 1222.63 1462.23 1208.67C1462.23 1202.25 1432.68 1168.17 1396.51 1133.02C1339.92 1077.87 1320.79 1064.23 1258.47 1033.85C1173.56 992.603 1142.62 959.841 1123.06 890.293C1093.88 786.536 1015.39 664.733 911.051 561.416C803.381 454.736 700.553 395.752 606.341 386.509C568.04 382.749 548.229 376.938 528.417 363.537C494.884 340.83 416.992 315.218 378.948 314.414ZM565.272 503.187C557.6 502.691 550.87 503.691 546.279 506.897C529.047 518.656 531.122 532.994 551.31 541.86C560.807 546.073 574.266 560.851 581.247 574.685C604.832 621.155 640.994 590.029 624.894 537.081C619.799 520.417 588.416 504.696 565.272 503.187Z" fill="#1D1D1D"/>
<path opacity="0.1" d="M88.0739 0C39.2948 0 0 39.289 0 88.0609V150.943C0 102.172 39.2948 62.8827 88.0739 62.8827H1672.95C1721.69 62.8827 1761 102.172 1761 150.943V88.0609C1761 39.289 1721.69 0 1672.95 0H88.0739Z" fill="#1D1D1D"/>
<path opacity="0.2" d="M0 1672.68V1735.56C0 1784.3 39.2948 1823.6 88.0739 1823.6H1672.95C1721.69 1823.6 1761 1784.3 1761 1735.56V1672.68C1761 1721.41 1721.69 1760.71 1672.95 1760.71H88.0739C39.32 1760.71 0.025161 1721.41 0.025161 1672.68H0Z" fill="black"/>
</svg>
