<svg width="1823" height="2500" viewBox="0 0 1823 2500" fill="none" xmlns="http://www.w3.org/2000/svg">
<path d="M0 2015.5L15.1181 1994.34L730.104 637.67L731.614 623.307L416.442 31.2807C390.022 -18.3106 315.678 -5.77033 307.019 49.7457L0 2015.5Z" fill="#F5F2EE"/>
<path d="M8.92285 1999.37L20.3522 1977.07L727.854 634.616L413.458 40.1829C387.331 -8.88859 320.976 3.62317 312.403 58.5553L8.92285 1999.37Z" fill="#F5F2EE"/>
<g filter="url(#filter0_i_1_84)">
<path d="M8.92285 1999.37L20.3522 1977.07L727.854 634.616L413.458 40.1829C387.331 -8.88859 320.976 3.62317 312.403 58.5553L8.92285 1999.37Z" fill="#F5F2EE"/>
</g>
<path d="M961.384 1071.12L1196.06 830.781L961.312 382.65C939.03 340.23 876.813 340.102 854.767 382.65L729.343 621.827V642.193L961.376 1071.12H961.384Z" fill="#F5F2EE"/>
<path d="M957.196 1061.11L1185.35 827.448L957.196 393.012C935.534 351.773 882.902 347.451 861.467 388.81L735.388 631.704L731.614 644.123L957.196 1061.11V1061.11Z" fill="#F5F2EE"/>
<g filter="url(#filter1_i_1_84)">
<path d="M957.196 1061.11L1185.35 827.448L957.196 393.012C935.534 351.773 882.902 347.451 861.467 388.81L735.388 631.704L731.614 644.123L957.196 1061.11V1061.11Z" fill="#F5F2EE"/>
</g>
<path d="M0 2015.5L6.85049 2008.61L31.7458 1998.5L946.643 1087L958.236 1055.44L730.005 620.531L0 2015.5Z" fill="#F5F2EE"/>
<path d="M990.694 2475.19L1818.7 2013.41L1582.25 557.181C1574.85 511.621 1518.96 493.611 1486.34 526.276L0 2015.5L823.255 2475.16C848.844 2489.44 877.663 2496.95 906.97 2496.95C936.277 2496.96 965.099 2489.47 990.694 2475.19Z" fill="#F5F2EE"/>
<path d="M1811.28 2009.54L1576.62 564.367C1569.29 519.148 1522.8 500.44 1490.44 532.863L9.18652 2012.67L823.405 2467.76C848.799 2481.94 877.398 2489.39 906.481 2489.4C935.565 2489.4 964.168 2481.97 989.569 2467.81L1811.29 2009.53L1811.28 2009.54Z" fill="#F5F2EE"/>
<path d="M990.686 2461.58C965.092 2475.86 936.272 2483.35 906.966 2483.34C877.66 2483.34 848.843 2475.83 823.255 2461.55L6.62945 2008.5L0.00683594 2015.5L823.255 2475.16C848.844 2489.44 877.663 2496.95 906.97 2496.95C936.277 2496.96 965.098 2489.47 990.693 2475.19L1818.7 2013.41L1816.67 2000.93L990.693 2461.59L990.686 2461.58Z" fill="#F5F2EE"/>
<defs>
<filter id="filter0_i_1_84" x="8.92285" y="9.51562" width="718.932" height="1989.85" filterUnits="userSpaceOnUse" color-interpolation-filters="sRGB">
<feFlood flood-opacity="0" result="BackgroundImageFix"/>
<feBlend mode="normal" in="SourceGraphic" in2="BackgroundImageFix" result="shape"/>
<feColorMatrix in="SourceAlpha" type="matrix" values="0 0 0 0 0 0 0 0 0 0 0 0 0 0 0 0 0 0 127 0" result="hardAlpha"/>
<feOffset/>
<feGaussianBlur stdDeviation="124.619"/>
<feComposite in2="hardAlpha" operator="arithmetic" k2="-1" k3="1"/>
<feColorMatrix type="matrix" values="0 0 0 0 0 0 0 0 0 0 0 0 0 0 0 0 0 0 0.06 0"/>
<feBlend mode="normal" in2="shape" result="effect1_innerShadow_1_84"/>
</filter>
<filter id="filter1_i_1_84" x="731.614" y="310.007" width="460.855" height="751.099" filterUnits="userSpaceOnUse" color-interpolation-filters="sRGB">
<feFlood flood-opacity="0" result="BackgroundImageFix"/>
<feBlend mode="normal" in="SourceGraphic" in2="BackgroundImageFix" result="shape"/>
<feColorMatrix in="SourceAlpha" type="matrix" values="0 0 0 0 0 0 0 0 0 0 0 0 0 0 0 0 0 0 127 0" result="hardAlpha"/>
<feOffset dx="7.12109" dy="-64.0898"/>
<feGaussianBlur stdDeviation="24.9238"/>
<feComposite in2="hardAlpha" operator="arithmetic" k2="-1" k3="1"/>
<feColorMatrix type="matrix" values="0 0 0 0 0 0 0 0 0 0 0 0 0 0 0 0 0 0 0.09 0"/>
<feBlend mode="normal" in2="shape" result="effect1_innerShadow_1_84"/>
</filter>
</defs>
</svg>
