<svg width="3017" height="3017" viewBox="0 0 3017 3017" fill="none" xmlns="http://www.w3.org/2000/svg">
<path fill-rule="evenodd" clip-rule="evenodd" d="M886.327 9.07621C1047.18 1.73572 1098.55 0 1508.13 0C1917.71 0 1969.07 1.73572 2129.92 9.07621C2290.45 16.3975 2400.08 41.8929 2496.01 79.178C2595.19 117.713 2679.29 169.281 2763.13 253.123C2846.98 336.969 2898.54 421.072 2937.08 520.243C2974.36 616.176 2999.86 725.802 3007.18 886.327C3014.52 1047.19 3016.26 1098.55 3016.26 1508.13C3016.26 1917.71 3014.52 1969.07 3007.18 2129.93C2999.86 2290.45 2974.36 2400.08 2937.08 2496.01C2898.54 2595.19 2846.98 2679.29 2763.13 2763.13C2679.29 2846.98 2595.19 2898.54 2496.01 2937.08C2400.08 2974.36 2290.45 2999.86 2129.92 3007.18C1969.07 3014.52 1917.71 3016.26 1508.13 3016.26C1098.55 3016.26 1047.18 3014.52 886.327 3007.18C725.802 2999.86 616.176 2974.36 520.243 2937.08C421.072 2898.54 336.964 2846.98 253.123 2763.13C169.275 2679.29 117.713 2595.18 79.1714 2496.01C41.8876 2400.08 16.3974 2290.45 9.06934 2129.93C1.73023 1969.07 0 1917.71 0 1508.13C0 1098.54 1.73023 1047.19 9.06934 886.327C16.3974 725.802 41.8876 616.176 79.1714 520.243C117.713 421.072 169.275 336.969 253.123 253.123C336.964 169.281 421.072 117.713 520.243 79.178C616.176 41.8929 725.802 16.3975 886.327 9.07621ZM2117.54 280.523C1958.51 273.268 1910.81 271.735 1508.13 271.735C1105.44 271.735 1057.74 273.268 898.708 280.523C751.673 287.234 671.814 311.803 618.673 332.456C548.282 359.815 498.036 392.495 445.265 445.274C392.495 498.045 359.808 548.282 332.449 618.677C311.803 671.822 287.234 751.673 280.523 898.716C273.268 1057.74 271.735 1105.44 271.735 1508.13C271.735 1910.81 273.268 1958.51 280.523 2117.54C287.234 2264.58 311.803 2344.44 332.449 2397.58C359.808 2467.97 392.495 2518.22 445.265 2570.99C498.036 2623.76 548.282 2656.44 618.673 2683.8C671.814 2704.44 751.673 2729.03 898.716 2735.73C1057.72 2742.98 1105.41 2744.52 1508.13 2744.52C1910.84 2744.52 1958.54 2742.98 2117.54 2735.73C2264.58 2729.03 2344.43 2704.44 2397.57 2683.8C2467.97 2656.44 2518.22 2623.76 2570.99 2570.99C2623.76 2518.22 2656.43 2467.97 2683.8 2397.58C2704.44 2344.44 2729.02 2264.58 2735.73 2117.54C2742.98 1958.51 2744.52 1910.81 2744.52 1508.13C2744.52 1105.44 2742.98 1057.74 2735.73 898.716C2729.02 751.673 2704.44 671.822 2683.8 618.677C2656.43 548.282 2623.76 498.045 2570.99 445.265C2518.22 392.495 2467.97 359.815 2397.57 332.456C2344.43 311.803 2264.58 287.234 2117.54 280.523ZM1005.41 1508.13C1005.41 1785.76 1230.49 2010.84 1508.13 2010.84C1785.76 2010.84 2010.84 1785.76 2010.84 1508.13C2010.84 1230.49 1785.76 1005.42 1508.13 1005.42C1230.49 1005.42 1005.41 1230.49 1005.41 1508.13ZM733.679 1508.13C733.679 1080.41 1080.41 733.687 1508.13 733.687C1935.83 733.687 2282.57 1080.41 2282.57 1508.13C2282.57 1935.85 1935.83 2282.57 1508.13 2282.57C1080.41 2282.57 733.679 1935.85 733.679 1508.13ZM2313.17 884.061C2413.11 884.061 2494.14 803.038 2494.14 703.086C2494.14 603.134 2413.11 522.114 2313.17 522.114C2213.22 522.114 2132.19 603.134 2132.19 703.086C2132.19 803.038 2213.22 884.061 2313.17 884.061Z" fill="#1D1D1D"/>
</svg>
