<svg width="4105" height="4105" viewBox="0 0 4105 4105" fill="none" xmlns="http://www.w3.org/2000/svg">
<g clip-path="url(#clip0_11_4)">
<path fill-rule="evenodd" clip-rule="evenodd" d="M3811.78 0H292.298C131.03 0 0 132.863 0 295.964V3809.03C0 3972.14 131.03 4105 292.298 4105H3811.78C3973.06 4105 4105 3972.14 4105 3809.03V295.964C4105 132.863 3973.06 0 3811.78 0ZM1240.66 3518.56H632.242V1559.54H1241.58V3518.56H1240.66ZM936.453 1291.98C741.281 1291.98 583.68 1133.46 583.68 939.203C583.68 744.95 741.281 586.43 936.453 586.43C1130.71 586.43 1289.23 744.95 1289.23 939.203C1289.23 1134.37 1131.63 1291.98 936.453 1291.98ZM3521.32 3518.56H2912.91V2565.62C2912.91 2338.38 2908.33 2046.09 2596.77 2046.09C2279.75 2046.09 2231.17 2293.48 2231.17 2549.14V3518.56H1622.76V1559.54H2206.44V1827.08H2214.68C2296.23 1673.15 2495.07 1510.97 2791.04 1510.97C3406.79 1510.97 3521.32 1916.88 3521.32 2444.68V3518.56Z" fill="#F5F2EE"/>
</g>
<defs>
<clipPath id="clip0_11_4">
<rect width="4105" height="4105" fill="white"/>
</clipPath>
</defs>
</svg>
