<svg width="3129" height="3129" viewBox="0 0 3129 3129" fill="none" xmlns="http://www.w3.org/2000/svg">
<g clip-path="url(#clip0_1_125)">
<path fill-rule="evenodd" clip-rule="evenodd" d="M1842.33 6.09804C1819.78 6.09804 1798.72 10.9025 1779.5 17.1853C1820.71 44.9033 1843.25 80.9368 1854.71 122.144C1855.45 127.688 1857.11 131.753 1857.85 137.482C1858.59 143.21 1859.7 147.091 1859.7 152.265C1863.02 223.408 1841.22 232.277 1825.7 274.224C1802.23 328.367 1808.7 386.575 1836.78 433.141C1839.35 439.375 1842.58 445.321 1846.39 450.881C1815.72 246.506 1986.28 215.647 2017.69 151.895C2020.09 96.0894 1974.08 58.9471 1937.68 33.077C1902.94 12.0112 1871.15 5.35889 1842.33 5.35889V6.09804ZM2099.18 52.2948C2095.85 70.7735 2098.44 65.9691 2097.33 75.7628L2095.49 96.8285L2089.94 116.231C2088.09 122.699 2085.88 129.166 2083.47 135.634L2074.6 154.112C2072.2 157.439 2070.54 160.58 2068.14 163.721L2063.33 171.113L2051.14 187.189C2046.33 191.994 2042.27 197.722 2036.35 201.972C2030.44 206.222 2026.74 211.581 2021.02 215.647C2004.02 228.582 1984.61 238.191 1966.87 250.387C1961.33 254.452 1955.79 257.778 1950.8 262.583C1945.33 266.452 1940.2 270.779 1935.46 275.518C1929.92 280.322 1925.85 285.127 1920.68 290.855C1915.5 296.583 1911.81 301.388 1908.48 306.931L1897.39 323.932L1888.52 342.411L1882.06 360.889L1876.51 381.216C1875.77 384.542 1875.77 388.607 1874.66 391.749C1873.56 394.89 1873.93 398.216 1872.82 401.358L1872.08 421.684C1872.08 426.489 1872.08 431.293 1872.82 436.467C1872.82 442.935 1873.56 449.402 1875.22 456.794C1876.88 464.185 1877.62 469.729 1879.28 476.196L1885.75 495.599C1887.6 499.664 1889.82 503.73 1891.3 506.686L1705.4 434.619L1611.71 410.597L1560.71 398.401C1512.07 388.706 1462.98 381.429 1413.62 376.596C1411.77 376.596 1411.22 375.857 1409.56 375.857L1264.87 368.466L1158.98 372.531C1109.65 375.857 1060.31 382.14 1011.15 390.27L974.751 396.738L901.945 412.814L865.542 422.423L830.802 437.761L804.193 449.957C802.345 450.696 800.867 450.696 800.128 451.804L777.584 462.892C775.181 463.631 773.518 464.74 772.04 465.294L746.909 478.229C741.365 480.631 735.822 483.773 730.832 486.36C728.43 488.208 725.289 489.501 723.441 490.425L702.375 502.621C695.684 506.318 689.206 510.39 682.973 514.817L666.896 525.904L649.157 538.839L635.482 549.926C633.634 550.666 632.156 552.329 630.678 553.253L618.482 563.785C617.743 565.633 616.08 566.188 615.156 567.112L600.373 580.786L584.296 596.123L570.622 610.906C568.774 612.754 566.557 614.232 565.078 615.711C560.737 620.775 556.174 625.646 551.404 630.309C550.665 632.157 549.002 632.711 548.078 634.374L529.599 653.777L485.99 695.723C471.207 708.659 456.054 720.855 440.717 731.203L392.303 761.877C376.226 770.747 359.041 778.878 341.301 785.9C324.129 793.205 306.616 799.68 288.822 805.302C254.821 812.694 220.081 826.368 190.145 828.77C183.678 828.77 176.471 830.618 169.819 831.172L149.492 835.977L130.09 843.368C123.474 845.989 116.998 848.95 110.687 852.238C105.143 856.303 98.491 859.63 92.9474 863.325C87.4038 867.021 81.8602 872.195 76.8709 877C71.8817 881.804 65.7837 886.609 60.7945 891.783L47.1202 907.859C43.0549 914.327 38.2504 920.055 34.9243 926.338C30.6951 932.262 26.9267 938.501 23.6523 945.001L14.7825 966.067L7.39099 987.133L3.32567 1006.54C0.92344 1016.14 0.923441 1025.94 -0.000494816 1030.56C-0.92443 1035.18 -0.000494816 1041.28 -0.000494816 1047C-0.157474 1050.53 0.0905287 1054.07 0.738654 1057.54C1.4778 1063.08 2.58652 1068.07 4.06482 1072.87L9.60843 1087.66C12.0107 1093.2 15.152 1098.19 18.4782 1102.99L29.0111 1117.78L42.6853 1130.71C47.4221 1135.45 52.553 1139.78 58.0227 1143.65C77.4253 1160.65 82.045 1166.19 107.361 1179.13C111.426 1181.53 115.491 1183.19 120.296 1185.59C122.698 1188 122.698 1188.74 123.622 1190.4C124.361 1196.87 126.024 1203.33 127.687 1209.8C129.231 1216.46 131.396 1222.95 134.155 1229.2L140.622 1243.99C141.362 1245.83 142.47 1247.31 143.025 1248.05L152.634 1265.79L164.83 1282.79L178.504 1298.13C183.308 1302.93 188.113 1307 193.841 1311.8L209.918 1324C215.461 1328.06 221.005 1331.39 227.657 1334.53C233.635 1337.98 239.876 1340.94 246.321 1343.4C251.125 1345.8 256.854 1347.47 262.397 1348.95C267.941 1350.42 272.93 1352.27 276.071 1353.01C273.669 1396.62 272.745 1438.01 279.398 1452.43C286.789 1468.5 322.268 1419.16 357.747 1362.8C352.943 1418.61 349.617 1484.03 357.747 1503.24C365.878 1522.46 415.031 1460.37 457.163 1390.89C1030 1258.4 1552.95 1654.4 1607.83 2213.56C1597.3 2126.35 1489.94 2077.75 1440.6 2089.76C1416.58 2149.63 1375.19 2226.5 1308.85 2273.99C1314.39 2220.4 1311.99 2165.7 1300.72 2112.3C1282.64 2186.69 1248.45 2256.21 1200.56 2315.94C1123.87 2321.48 1047.19 2284.52 1006.53 2228.72C1003.21 2226.31 1002.47 2221.33 1000.07 2218.18L993.6 2201.18C991.197 2195.64 989.534 2190.1 988.795 2184.18C988.056 2178.27 988.056 2173.1 988.056 2166.44V2154.25C988.795 2148.7 990.458 2143.16 992.121 2137.25L997.665 2120.25C1000.99 2114.7 1003.21 2109.16 1007.27 2103.25C1020.95 2066.29 1020.95 2033.03 996.187 2014.55C991.382 2011.22 986.578 2009.01 980.849 2006.42C977.523 2005.68 973.458 2004.02 970.316 2003.09L963.849 2000.69L946.849 1996.62C941.323 1995.03 935.6 1994.22 929.848 1994.22C923.979 1993.27 918.053 1992.71 912.109 1992.56C908.043 1992.56 903.978 1993.3 899.913 1993.3C893.915 1993.25 887.941 1994.06 882.173 1995.7L865.173 1998.84L848.172 2004.39L832.096 2011.78L816.758 2019.91C628.276 2142.79 740.996 2430.14 869.238 2513.66C820.824 2522.53 771.301 2533.06 757.811 2543.59C791.073 2566.14 827.291 2584.25 865.357 2599.4L996.187 2636.36C1063.26 2651.14 1131.08 2655.76 1199.82 2651.69C1374.43 2638.91 1539.45 2566.9 1667.57 2447.58C1795.7 2328.26 1879.25 2168.78 1904.42 1995.52L1909.22 2016.58L1916.61 2061.85L1919.94 2083.66L1921.79 2107.68L1923.63 2134.29V2147.23C1923.63 2151.29 1924.37 2156.1 1924.37 2160.16C1924.37 2164.23 1923.63 2169.77 1923.63 2174.94V2186.03C1923.63 2191.57 1922.89 2196.56 1922.89 2202.11C1922.89 2205.25 1922.89 2208.58 1922.15 2212.64L1921.42 2230.38C1920.68 2232.78 1920.68 2235.18 1920.68 2237.77L1918.27 2256.25C1918.27 2258.65 1918.27 2261.05 1917.54 2263.64L1914.39 2287.11V2288.96L1909.59 2311.5L1904.78 2335.52L1898.32 2360.66L1891.85 2385.79L1883.72 2411.66L1865.98 2458.59L1856.37 2482.06L1845.28 2504.6C1844.54 2507.01 1843.44 2508.67 1842.88 2510.15C1788.74 2618.43 1711.13 2711.57 1614.11 2784C1607.65 2788.07 1601.18 2792.87 1594.71 2797.68C1592.86 2799.52 1590.65 2800.08 1589.17 2801.74L1571.43 2813.94L1573.83 2818.74H1574.57L1608.57 2813.94H1609.31L1672.14 2802.85C1677.68 2802.11 1684.33 2800.45 1689.88 2798.79L1700.96 2796.38L1717.97 2793.24L1732.75 2789.18C1813.5 2769.77 1891.67 2742.98 1967.06 2711.57C1838.63 2887.11 1666.41 3028.29 1465.18 3121.24C1558.12 3114.77 1651.07 3099.43 1740.51 3073.56C2066.1 2977.47 2340.14 2758.5 2504.23 2463.4C2470.96 2650.5 2396.76 2827.93 2286.92 2983.02C2365.27 2931.28 2437.16 2871.59 2502.76 2803.77C2683.62 2614.93 2802.34 2375.24 2842.95 2116.92C2870.67 2244.42 2878.43 2376.36 2866.42 2506.45C3449.79 1692.65 2914.83 848.912 2690.87 626.798C2690.13 624.95 2689.02 624.396 2689.02 622.733C2687.17 632.341 2686.62 642.135 2685.88 651.744C2683.48 670.223 2681.08 688.147 2677.75 705.887C2674.42 723.626 2668.88 741.366 2664.07 759.475C2659.27 777.584 2651.88 794.215 2644.67 811.215C2637.47 828.216 2629.34 844.477 2620.65 860.554C2611.74 876.359 2602.06 891.716 2591.64 906.566C2581.11 921.903 2569.83 936.501 2558.38 950.175C2546.32 964.241 2533.61 977.745 2520.31 990.644C2512.18 998.035 2504.97 1004.32 2496.84 1010.97L2478.36 1027.05C2463.93 1038.49 2448.81 1049.05 2433.09 1058.65C2417.66 1068.6 2401.75 1077.79 2385.42 1086.18C2368.42 1094.31 2351.42 1101.52 2334.41 1108.72C2317.21 1115.23 2299.69 1120.91 2281.94 1125.72C2264.2 1130.53 2245.53 1134.59 2227.79 1137.92C2210.05 1141.25 2190.84 1142.72 2172.91 1144.39C2159.98 1145.13 2147.04 1146.23 2135.95 1146.23C2117.47 1146.23 2099 1144.39 2081.07 1142.91C2063.15 1141.43 2044.11 1138.84 2026.01 1134.78C2007.67 1131.46 1989.58 1126.89 1971.86 1121.1H1971.12C1988.86 1119.26 2006.6 1117.78 2024.71 1114.64C2042.82 1111.49 2061.11 1107.24 2078.85 1102.44C2096.59 1097.64 2114.33 1091.91 2131.33 1085.44C2148.33 1078.97 2166.07 1070.66 2182.34 1062.9C2198.9 1054.82 2215.05 1045.94 2230.75 1036.29C2246.09 1025.75 2261.42 1015.22 2276.02 1003.95C2290.5 992.682 2304.26 980.524 2317.23 967.545C2330.9 955.349 2343.1 941.675 2355.3 928.001C2367.49 914.327 2378.76 898.989 2389.3 884.391C2391.14 881.989 2392.62 878.848 2394.1 876.261L2417.57 839.303C2426.44 823.227 2434.57 806.965 2441.59 789.965C2448.61 772.965 2455.27 755.964 2460.99 738.224C2466.72 720.485 2470.6 703.485 2474.67 685.745C2478.73 668.005 2481.14 649.342 2482.8 631.602C2484.46 613.863 2485.94 594.645 2485.94 576.721C2485.94 563.785 2485.2 550.85 2484.09 539.763C2482.24 521.284 2480.03 503.36 2477.62 485.621C2474.41 467.392 2470.34 449.325 2465.43 431.478C2459.89 414.478 2454.34 396.738 2447.69 379.738C2441.04 362.737 2432.91 345.737 2425.15 329.845C2417.38 313.953 2407.41 297.507 2397.43 282.17C2387.45 266.833 2376.36 252.234 2365.09 237.821L2328.13 196.614C2321.31 189.698 2314.28 182.981 2307.07 176.472C2270.86 148.33 2233.37 121.877 2194.72 97.1981C2189.17 94.0567 2184.18 91.6545 2178.64 89.0674C2152.03 72.067 2126.9 63.1972 2101.95 55.0666L2099.18 52.2948Z" fill="#F5F2EE"/>
</g>
<defs>
<clipPath id="clip0_1_125">
<rect width="3129" height="3129" fill="white"/>
</clipPath>
</defs>
</svg>
