<svg width="5292" height="1061" viewBox="0 0 5292 1061" fill="none" xmlns="http://www.w3.org/2000/svg">
<g clip-path="url(#clip0_1_127)">
<path d="M3517.96 0.444153H4439.73V170.566H4074.07V1065.55H3891.23V170.566H3517.96V0.444153Z" fill="#F5F2EE"/>
<path d="M2001.99 0.444153V170.566H1263.12V444.239H1857.32V614.361H1263.12V895.432H2001.99V1065.55H1080.29V170.566H1080.22V0.444153H2001.99Z" fill="#F5F2EE"/>
<path d="M2462.26 0.888428H2222.99L3080 1066H3319.96L2891.41 533.809L3319.28 1.70104L3080 2.07078L2771.61 385.045L2462.26 0.888428Z" fill="#F5F2EE"/>
<path d="M2707.79 761.701L2587.96 612.733L2222.3 1066.81H2462.26L2707.79 761.701Z" fill="#F5F2EE"/>
<path fill-rule="evenodd" clip-rule="evenodd" d="M1086.7 1065.55L228.538 0H0V1065.11H182.831V227.666L857.018 1065.55H1086.7Z" fill="#F5F2EE"/>
<path d="M4480.83 1059.05C4467.44 1059.05 4456.05 1054.41 4446.52 1045.13C4436.98 1035.86 4432.26 1024.63 4432.39 1011.32C4432.26 998.384 4436.98 987.275 4446.52 977.999C4456.05 968.723 4467.44 964.084 4480.83 964.084C4493.71 964.084 4504.98 968.723 4514.52 977.999C4524.19 987.275 4529.01 998.384 4529.15 1011.32C4529.01 1020.11 4526.78 1028.17 4522.32 1035.37C4517.74 1042.69 4511.93 1048.43 4504.61 1052.58C4497.42 1056.85 4489.5 1059.05 4480.83 1059.05Z" fill="#F5F2EE"/>
<path d="M4792.89 610.348H4873.9V922.46C4873.78 951.145 4867.58 975.679 4855.45 996.309C4843.19 1016.94 4826.21 1032.68 4804.41 1043.79C4782.73 1054.77 4757.33 1060.39 4728.47 1060.39C4702.08 1060.39 4678.42 1055.63 4657.36 1046.35C4636.3 1037.08 4619.58 1023.16 4607.32 1004.85C4594.92 986.542 4588.85 963.717 4588.85 936.376H4670C4670.12 948.338 4672.85 958.712 4678.05 967.378C4683.24 976.045 4690.43 982.635 4699.6 987.274C4708.88 991.913 4719.55 994.232 4731.56 994.232C4744.57 994.232 4755.72 991.546 4764.76 986.053C4773.8 980.682 4780.74 972.627 4785.58 961.885C4790.28 951.267 4792.76 938.084 4792.89 922.46V610.348Z" fill="#F5F2EE"/>
<path d="M5207.26 732.41C5205.29 713.49 5196.61 698.721 5181.5 688.224C5166.25 677.604 5146.56 672.356 5122.4 672.356C5105.44 672.356 5090.82 674.92 5078.68 679.924C5066.54 685.05 5057.12 691.885 5050.68 700.551C5044.24 709.218 5041.02 719.105 5040.76 730.214C5040.76 739.49 5042.99 747.546 5047.33 754.26C5051.67 761.094 5057.49 766.832 5065.05 771.471C5072.48 776.23 5080.78 780.136 5089.83 783.309C5098.99 786.483 5108.16 789.169 5117.32 791.366L5159.57 801.741C5176.54 805.647 5193.02 810.897 5208.75 817.609C5224.48 824.201 5238.73 832.623 5251.23 842.754C5263.75 852.886 5273.66 865.091 5280.97 879.373C5288.28 893.653 5292 910.376 5292 929.662C5292 955.66 5285.31 978.486 5271.8 998.26C5258.3 1017.91 5238.85 1033.29 5213.33 1044.4C5187.93 1055.39 5157.21 1061 5121.04 1061C5086.11 1061 5055.63 1055.63 5029.99 1044.89C5004.23 1034.27 4984.15 1018.64 4969.66 998.138C4955.16 977.632 4947.36 952.609 4946.25 923.192H5026.53C5027.64 938.571 5032.6 951.389 5041.02 961.764C5049.56 972.017 5060.71 979.585 5074.34 984.711C5088.1 989.716 5103.45 992.279 5120.43 992.279C5138.14 992.279 5153.75 989.593 5167.25 984.345C5180.63 979.096 5191.16 971.774 5198.72 962.253C5206.4 952.853 5210.24 941.746 5210.36 929.052C5210.24 917.456 5206.76 907.812 5200.07 900.244C5193.26 892.677 5183.85 886.33 5171.83 881.203C5159.7 876.077 5145.57 871.438 5129.46 867.41L5078.18 854.472C5041.14 845.073 5011.78 830.793 4990.34 811.629C4968.8 792.465 4958.13 767.076 4958.13 735.218C4958.13 709.097 4965.32 686.15 4979.82 666.497C4994.18 646.846 5013.89 631.588 5038.79 620.724C5063.81 609.739 5092.06 604.367 5123.51 604.367C5155.48 604.367 5183.47 609.739 5207.64 620.724C5231.79 631.588 5250.75 646.724 5264.49 666.008C5278.25 685.294 5285.43 707.387 5285.81 732.41H5207.26Z" fill="#F5F2EE"/>
</g>
<defs>
<clipPath id="clip0_1_127">
<rect width="5292" height="1061" fill="white"/>
</clipPath>
</defs>
</svg>
