<svg width="2500" height="2005" viewBox="0 0 2500 2005" fill="none" xmlns="http://www.w3.org/2000/svg">
<path d="M2067.96 915.663C2067.96 806.378 1931.11 702.809 1721.27 638.582C1769.7 424.717 1748.18 254.566 1653.34 200.09C1631.49 187.312 1605.94 181.259 1578.02 181.259V256.247C1593.49 256.247 1605.94 259.273 1616.36 264.99C1662.09 291.218 1681.93 391.09 1666.46 519.543C1662.77 551.153 1656.71 584.443 1649.31 618.406C1583.4 602.265 1511.44 589.824 1435.78 581.753C1390.39 519.543 1343.31 463.051 1295.89 413.62C1405.52 311.731 1508.42 255.91 1578.36 255.91V180.923C1485.88 180.923 1364.83 246.831 1242.43 361.162C1120.03 247.504 998.974 182.268 906.502 182.268V257.255C976.108 257.255 1079.34 312.74 1188.96 413.956C1141.89 463.387 1094.81 519.543 1050.08 581.753C974.085 589.824 902.126 602.265 836.22 618.742C828.483 585.116 822.768 552.497 818.73 521.225C802.932 392.771 822.43 292.9 867.831 266.335C877.914 260.282 891.028 257.592 906.502 257.592V182.604C878.252 182.604 852.695 188.657 830.505 201.435C736.011 255.91 714.829 425.725 763.584 638.918C554.428 703.482 418.24 806.717 418.24 915.663C418.24 1024.96 555.1 1128.53 764.93 1192.75C716.506 1406.62 738.026 1576.76 832.859 1631.24C854.717 1644.02 880.268 1650.07 908.517 1650.07C1000.99 1650.07 1122.05 1584.16 1244.45 1469.83C1366.85 1583.49 1487.91 1648.73 1580.38 1648.73C1608.62 1648.73 1634.18 1642.68 1656.38 1629.89C1750.86 1575.42 1772.05 1405.6 1723.29 1192.42C1931.78 1128.19 2067.96 1024.62 2067.96 915.663ZM1630.15 691.376C1617.7 734.757 1602.24 779.474 1584.75 824.199C1570.96 797.302 1556.5 770.399 1540.7 743.495C1525.23 716.596 1508.75 690.367 1492.27 664.811C1540.02 671.872 1586.09 680.616 1630.15 691.376ZM1476.13 1049.5C1449.9 1094.9 1423.01 1137.94 1395.1 1177.96C1344.99 1182.33 1294.22 1184.68 1243.1 1184.68C1192.32 1184.68 1141.55 1182.33 1091.78 1178.29C1063.87 1138.27 1036.63 1095.57 1010.4 1050.51C984.845 1006.46 961.649 961.733 940.459 916.678C961.31 871.615 984.845 826.552 1010.07 782.505C1036.3 737.111 1063.2 694.066 1091.11 654.05C1141.22 649.678 1191.99 647.325 1243.1 647.325C1293.88 647.325 1344.66 649.678 1394.42 653.714C1422.33 693.73 1449.57 736.434 1475.8 781.497C1501.36 825.545 1524.55 870.269 1545.74 915.332C1524.55 960.388 1501.36 1005.45 1476.13 1049.5ZM1584.75 1005.79C1602.4 1049.61 1617.89 1094.27 1631.16 1139.62C1587.1 1150.38 1540.7 1159.46 1492.61 1166.52C1509.09 1140.63 1525.56 1114.07 1541.04 1086.82C1556.5 1059.93 1570.96 1032.69 1584.75 1005.79ZM1243.77 1364.59C1212.5 1332.3 1181.23 1296.32 1150.29 1256.98C1180.56 1258.32 1211.49 1259.33 1242.76 1259.33C1274.37 1259.33 1305.65 1258.66 1336.25 1256.98C1307.39 1294.49 1276.51 1330.41 1243.77 1364.59ZM993.59 1166.52C945.843 1159.46 899.773 1150.72 855.725 1139.95C868.162 1096.58 883.636 1051.85 901.118 1007.13C914.909 1034.03 929.368 1060.94 945.166 1087.83C960.972 1114.74 977.116 1140.96 993.59 1166.52ZM1242.09 466.75C1273.37 499.031 1304.64 535.012 1335.57 574.355C1305.31 573.01 1274.37 572.002 1243.1 572.002C1211.49 572.002 1180.22 572.674 1149.62 574.355C1178.48 536.846 1209.35 500.926 1242.09 466.75ZM993.252 664.811C976.777 690.703 960.303 717.268 944.835 744.502C929.368 771.406 914.909 798.31 901.118 825.206C883.465 781.385 867.979 736.72 854.717 691.376C898.765 680.952 945.166 671.872 993.252 664.811ZM688.933 1085.82C569.896 1035.04 492.891 968.463 492.891 915.663C492.891 862.87 569.896 795.957 688.933 745.517C717.852 733.073 749.463 721.976 782.081 711.552C801.248 777.459 826.467 846.057 857.74 916.34C826.806 986.284 801.917 1054.54 783.089 1120.12C749.801 1109.69 718.19 1098.26 688.933 1085.82ZM869.846 1566.34C824.114 1540.11 804.27 1440.24 819.745 1311.78C823.445 1280.18 829.49 1246.89 836.889 1212.92C902.803 1229.07 974.762 1241.51 1050.42 1249.58C1095.81 1311.78 1142.89 1368.28 1190.31 1417.71C1080.69 1519.6 977.785 1575.42 907.841 1575.42C892.712 1575.09 879.937 1572.06 869.846 1566.34ZM1667.47 1310.11C1683.27 1438.56 1663.77 1538.43 1618.37 1565C1608.29 1571.05 1595.18 1573.74 1579.7 1573.74C1510.1 1573.74 1406.86 1518.26 1297.24 1417.04C1344.32 1367.61 1391.4 1311.45 1436.12 1249.24C1512.12 1241.17 1584.08 1228.73 1649.98 1212.25C1657.72 1246.22 1663.77 1278.84 1667.47 1310.11ZM1796.93 1085.82C1768.01 1098.26 1736.4 1109.36 1703.78 1119.78C1684.62 1053.87 1659.4 985.276 1628.13 914.994C1659.07 845.05 1683.95 776.79 1702.78 711.215C1736.07 721.64 1767.68 733.073 1797.27 745.517C1916.31 796.287 1993.31 862.87 1993.31 915.663C1992.97 968.463 1915.97 1035.38 1796.93 1085.82Z" fill="#F5F2EE"/>
<path d="M1242.76 1069.34C1327.64 1069.34 1396.44 1000.54 1396.44 915.663C1396.44 830.793 1327.64 761.992 1242.76 761.992C1157.89 761.992 1089.09 830.793 1089.09 915.663C1089.09 1000.54 1157.89 1069.34 1242.76 1069.34ZM493.15 1914.66H442.421V2002.03H413.794V1786.06H485.289C509.614 1786.06 528.304 1791.6 541.357 1802.68C554.509 1813.75 561.085 1829.87 561.085 1851.03C561.085 1864.48 557.426 1876.2 550.108 1886.19C542.89 1896.17 532.804 1903.64 519.85 1908.58L570.578 2000.25V2002.03H540.022L493.15 1914.66ZM442.421 1891.38H486.179C500.32 1891.38 511.543 1887.71 519.85 1880.4C528.255 1873.08 532.457 1863.29 532.457 1851.03C532.457 1837.68 528.452 1827.45 520.443 1820.33C512.532 1813.21 501.061 1809.6 486.03 1809.5H442.421V1891.38ZM663.435 2005C641.677 2005 623.976 1997.88 610.33 1983.64C596.684 1969.3 589.861 1950.16 589.861 1926.24V1921.19C589.861 1905.27 592.877 1891.08 598.908 1878.62C605.04 1866.06 613.544 1856.27 624.421 1849.25C635.398 1842.13 647.264 1838.57 660.02 1838.57C680.887 1838.57 697.106 1845.44 708.671 1859.19C720.243 1872.93 726.025 1892.61 726.025 1918.22V1929.64H617.301C617.697 1945.47 622.296 1958.28 631.096 1968.07C639.996 1977.75 651.269 1982.6 664.916 1982.6C674.609 1982.6 682.812 1980.62 689.534 1976.67C696.264 1972.71 702.144 1967.47 707.19 1960.94L723.95 1974C710.498 1994.66 690.331 2005 663.435 2005ZM660.02 1861.12C648.945 1861.12 639.65 1865.17 632.135 1873.28C624.619 1881.29 619.971 1892.56 618.192 1907.1H698.587V1905.02C697.798 1891.08 694.038 1880.3 687.316 1872.68C680.586 1864.98 671.488 1861.12 660.02 1861.12ZM857.003 2002.03C855.417 1998.86 854.131 1993.23 853.146 1985.12C840.386 1998.37 825.159 2005 807.459 2005C791.638 2005 778.637 2000.55 768.449 1991.65C758.366 1982.65 753.32 1971.28 753.32 1957.53C753.32 1940.82 759.651 1927.87 772.306 1918.67C785.059 1909.37 802.962 1904.72 826.001 1904.72H852.702V1892.12C852.702 1882.53 849.83 1874.91 844.1 1869.28C838.363 1863.54 829.904 1860.68 818.73 1860.68C808.94 1860.68 800.737 1863.14 794.112 1868.09C787.488 1873.03 784.172 1879.02 784.172 1886.04H756.583C756.583 1878.03 759.403 1870.32 765.035 1862.89C770.772 1855.38 778.487 1849.45 788.179 1845.1C797.969 1840.75 808.692 1838.57 820.362 1838.57C838.859 1838.57 853.341 1843.22 863.823 1852.52C874.305 1861.71 879.741 1874.42 880.14 1890.63V1964.5C880.14 1979.24 882.02 1990.95 885.779 1999.65V2002.03H857.003ZM811.466 1981.12C820.069 1981.12 828.227 1978.89 835.942 1974.44C843.649 1969.99 849.236 1964.21 852.702 1957.09V1924.16H831.189C797.571 1924.16 780.758 1934 780.758 1953.67C780.758 1962.28 783.63 1969.01 789.36 1973.85C795.097 1978.69 802.466 1981.12 811.466 1981.12ZM987.53 1982.6C997.32 1982.6 1005.88 1979.63 1013.19 1973.7C1020.51 1967.76 1024.56 1960.35 1025.35 1951.45H1051.32C1050.82 1960.64 1047.65 1969.4 1041.82 1977.71C1035.98 1986.01 1028.17 1992.64 1018.38 1997.58C1008.69 2002.53 998.41 2005 987.53 2005C965.679 2005 948.272 1997.73 935.316 1983.19C922.466 1968.55 916.037 1948.58 916.037 1923.27V1918.67C916.037 1903.05 918.902 1889.15 924.639 1876.99C930.376 1864.83 938.579 1855.38 949.264 1848.66C960.039 1841.93 972.747 1838.57 987.379 1838.57C1005.38 1838.57 1020.31 1843.96 1032.18 1854.74C1044.14 1865.52 1050.52 1879.51 1051.32 1896.72H1025.35C1024.56 1886.33 1020.61 1877.83 1013.49 1871.2C1006.47 1864.48 997.764 1861.12 987.379 1861.12C973.439 1861.12 962.611 1866.16 954.896 1876.25C947.287 1886.23 943.475 1900.72 943.475 1919.71V1924.9C943.475 1943.39 947.287 1957.63 954.896 1967.61C962.513 1977.61 973.394 1982.6 987.53 1982.6ZM1119.4 1802.68V1841.54H1149.36V1862.75H1119.4V1962.28C1119.4 1968.7 1120.73 1973.55 1123.4 1976.81C1126.07 1979.98 1130.62 1981.56 1137.05 1981.56C1140.21 1981.56 1144.56 1980.97 1150.1 1979.78V2002.03C1142.88 2004.01 1135.86 2005 1129.03 2005C1116.78 2005 1107.53 2001.29 1101.3 1993.87C1095.07 1986.46 1091.96 1975.92 1091.96 1962.28V1862.75H1062.73V1841.54H1091.96V1802.68H1119.4ZM1427.18 2002.03H1398.55L1289.83 1835.61V2002.03H1261.2V1786.06H1289.83L1398.85 1953.23V1786.06H1427.18V2002.03ZM1572.54 2002.03C1570.96 1998.86 1569.67 1993.23 1568.69 1985.12C1555.93 1998.37 1540.7 2005 1523 2005C1507.18 2005 1494.17 2000.55 1483.99 1991.65C1473.91 1982.65 1468.86 1971.28 1468.86 1957.53C1468.86 1940.82 1475.18 1927.87 1487.85 1918.67C1500.6 1909.37 1518.5 1904.72 1541.54 1904.72H1568.24V1892.12C1568.24 1882.53 1565.37 1874.91 1559.63 1869.28C1553.9 1863.54 1545.44 1860.68 1534.27 1860.68C1524.48 1860.68 1516.28 1863.14 1509.65 1868.09C1503.03 1873.03 1499.71 1879.02 1499.71 1886.04H1472.12C1472.12 1878.03 1474.94 1870.32 1480.57 1862.89C1486.31 1855.38 1494.03 1849.45 1503.72 1845.1C1513.51 1840.75 1524.23 1838.57 1535.9 1838.57C1554.39 1838.57 1568.88 1843.22 1579.36 1852.52C1589.84 1861.71 1595.28 1874.42 1595.68 1890.63V1964.5C1595.68 1979.24 1597.56 1990.95 1601.32 1999.65V2002.03H1572.54ZM1527.01 1981.12C1535.61 1981.12 1543.77 1978.89 1551.48 1974.44C1559.19 1969.99 1564.78 1964.21 1568.24 1957.09V1924.16H1546.73C1513.11 1924.16 1496.3 1934 1496.3 1953.67C1496.3 1962.28 1499.17 1969.01 1504.9 1973.85C1510.64 1978.69 1518.01 1981.12 1527.01 1981.12ZM1675.93 1802.68V1841.54H1705.89V1862.75H1675.93V1962.28C1675.93 1968.7 1677.26 1973.55 1679.93 1976.81C1682.6 1979.98 1687.15 1981.56 1693.58 1981.56C1696.74 1981.56 1701.09 1980.97 1706.63 1979.78V2002.03C1699.41 2004.01 1692.39 2005 1685.56 2005C1673.31 2005 1664.06 2001.29 1657.83 1993.87C1651.6 1986.46 1648.49 1975.92 1648.49 1962.28V1862.75H1619.27V1841.54H1648.49V1802.68H1675.93ZM1767.89 2002.03H1740.45V1841.54H1767.89V2002.03ZM1738.22 1798.97C1738.22 1794.52 1739.56 1790.76 1742.23 1787.69C1745 1784.63 1749.05 1783.1 1754.39 1783.1C1759.73 1783.1 1763.79 1784.63 1766.55 1787.69C1769.32 1790.76 1770.71 1794.52 1770.71 1798.97C1770.71 1803.42 1769.32 1807.12 1766.55 1810.09C1763.79 1813.06 1759.73 1814.54 1754.39 1814.54C1749.05 1814.54 1745 1813.06 1742.23 1810.09C1739.56 1807.12 1738.22 1803.42 1738.22 1798.97ZM1864.9 1964.8L1904.65 1841.54H1932.69L1875.13 2002.03H1854.21L1796.08 1841.54H1824.11L1864.9 1964.8ZM2023.61 2005C2001.85 2005 1984.15 1997.88 1970.51 1983.64C1956.86 1969.3 1950.04 1950.16 1950.04 1926.24V1921.19C1950.04 1905.27 1953.05 1891.08 1959.09 1878.62C1965.21 1866.06 1973.72 1856.27 1984.6 1849.25C1995.58 1842.13 2007.44 1838.57 2020.19 1838.57C2041.06 1838.57 2057.28 1845.44 2068.85 1859.19C2080.42 1872.93 2086.21 1892.61 2086.21 1918.22V1929.64H1977.48C1977.88 1945.47 1982.47 1958.28 1991.28 1968.07C2000.17 1977.75 2011.45 1982.6 2025.09 1982.6C2034.78 1982.6 2042.99 1980.62 2049.71 1976.67C2056.44 1972.71 2062.32 1967.47 2067.37 1960.94L2084.13 1974C2070.68 1994.66 2050.5 2005 2023.61 2005ZM2020.19 1861.12C2009.13 1861.12 1999.82 1865.17 1992.31 1873.28C1984.79 1881.29 1980.15 1892.56 1978.37 1907.1H2058.76V1905.02C2057.97 1891.08 2054.21 1880.3 2047.49 1872.68C2040.77 1864.98 2031.67 1861.12 2020.19 1861.12Z" fill="#F5F2EE"/>
</svg>
